<svg xmlns="http://www.w3.org/2000/svg" xmlns:xlink="http://www.w3.org/1999/xlink" width="100%" height="100%" version="1.1" viewBox="0 0 67 67" xml:space="preserve" style="fill-rule:evenodd;clip-rule:evenodd;stroke-linejoin:round;stroke-miterlimit:2"><g><g><path d="M500,0L0,500L0,2300L600,2300L600,2800L1100,2300L1500,2300L2400,1400L2400,0L500,0ZM2200,1300L1800,1700L1400,1700L1050,2050L1050,1700L600,1700L600,200L2200,200L2200,1300Z" transform="matrix(0.24744,0,0,0.24744,1.77636e-15,3.89977) matrix(0.0967045,0,0,0.0967045,19.3409,-15.7605)" style="fill:#fff;fill-rule:nonzero"/></g><g transform="matrix(0.24744,0,0,0.24744,1.77636e-15,3.89977) matrix(0.0967045,0,0,0.0967045,19.3409,-15.7605)"><rect width="200" height="600" x="1700" y="550" style="fill:#fff"/></g><g transform="matrix(0.24744,0,0,0.24744,1.77636e-15,3.89977) matrix(0.0967045,0,0,0.0967045,19.3409,-15.7605)"><rect width="200" height="600" x="1150" y="550" style="fill:#fff"/></g></g></svg>